<?xml version="1.0" encoding="UTF-8" standalone="no"?><!DOCTYPE svg PUBLIC "-//W3C//DTD SVG 1.1//EN" "http://www.w3.org/Graphics/SVG/1.1/DTD/svg11.dtd"><svg width="100%" height="100%" viewBox="0 0 6017 6017" version="1.1" xmlns="http://www.w3.org/2000/svg" xmlns:xlink="http://www.w3.org/1999/xlink" xml:space="preserve" xmlns:serif="http://www.serif.com/" style="fill-rule:evenodd;clip-rule:evenodd;stroke-linejoin:round;stroke-miterlimit:2;"><rect id="Mesa-de-trabajo1" serif:id="Mesa de trabajo1" x="0" y="0" width="6016.67" height="6016.67" style="fill:none;"/><g><clipPath id="_clip1"><path d="M6016.67,0l-6016.67,0l0,6016.67l6016.67,-0l-0,-6016.67Zm-3649.68,3944.38c5.113,-2.404 10.902,-4.208 17.377,-5.414c6.467,-1.198 12.708,-1.807 18.731,-1.807c6.014,0 12.415,0.609 19.183,1.807c6.768,1.206 12.709,3.01 17.83,5.414l-0,15.8c-0,3.606 1.424,7.751 4.289,12.411c2.853,4.668 7.143,8.958 12.865,12.861c5.71,3.919 12.86,7.225 21.436,9.934c8.575,2.708 18.578,4.059 30.014,4.059c16.546,-0 28.283,-2.479 35.206,-7.443c6.921,-4.969 10.383,-11.663 10.383,-20.09c-0,-7.22 -2.787,-13.384 -8.349,-18.504c-5.573,-5.113 -14.972,-9.625 -28.212,-13.54l-64.093,-18.957c-11.135,-3.31 -21.591,-7.373 -31.369,-12.186c-9.781,-4.813 -18.356,-10.983 -25.729,-18.508c-7.377,-7.518 -13.165,-16.475 -17.377,-26.858c-4.218,-10.378 -6.319,-22.794 -6.319,-37.231c0,-17.752 3.459,-32.954 10.383,-45.589c6.92,-12.642 15.643,-23.02 26.178,-31.146c10.53,-8.123 22.263,-14.138 35.206,-18.052c12.935,-3.911 25.425,-5.867 37.465,-5.867c21.663,0 38.512,3.088 50.55,9.251c12.033,6.171 20.46,13.02 25.276,20.538l0,-18.056c5.117,-2.404 10.983,-4.211 17.607,-5.417c6.612,-1.195 12.783,-1.804 18.501,-1.804c5.714,0 11.736,0.609 18.055,1.804c6.319,1.206 12.03,3.013 17.151,5.417l-0,103.358c-5.121,2.416 -10.832,4.219 -17.151,5.418c-6.319,1.209 -12.489,1.807 -18.504,1.807c-6.023,-0 -12.568,-0.598 -19.637,-1.807c-7.072,-1.199 -13.165,-3.002 -18.278,-5.418l0,-4.961c0,-10.831 -4.442,-20.237 -13.317,-28.211c-8.876,-7.967 -23.243,-11.963 -43.102,-11.963c-8.123,-0 -14.973,1.132 -20.538,3.388c-5.57,2.256 -9.859,5.042 -12.865,8.348c-3.607,4.219 -5.414,9.028 -5.414,14.446c0,4.516 1.425,8.731 4.286,12.638c2.857,3.915 9.855,7.525 20.991,10.831l48.293,13.544c14.445,4.215 28.278,8.875 41.529,13.989c13.235,5.12 24.968,11.733 35.202,19.862c10.226,8.123 18.43,18.208 24.601,30.238c6.163,12.037 9.251,27.083 9.251,45.135c-0,18.357 -3.767,34.008 -11.284,46.943c-7.522,12.942 -17.08,23.547 -28.664,31.822c-11.585,8.278 -24.527,14.293 -38.813,18.052c-14.297,3.762 -28.212,5.644 -41.748,5.644c-9.636,-0 -19.035,-0.902 -28.211,-2.709c-9.188,-1.803 -17.603,-4.286 -25.277,-7.447c-7.673,-3.158 -14.297,-6.843 -19.863,-11.058c-5.569,-4.211 -9.703,-8.575 -12.411,-13.091l-0,22.115c-5.121,2.416 -10.987,4.219 -17.603,5.418c-6.62,1.202 -12.791,1.807 -18.505,1.807c-5.718,-0 -11.737,-0.605 -18.052,-1.807c-6.323,-1.199 -12.041,-3.002 -17.154,-5.418l-0,-113.74Zm1819.31,52.809l-0,-196.342l-38.364,0l-0,47.392c-5.121,2.415 -10.909,4.219 -17.377,5.417c-6.475,1.206 -12.568,1.807 -18.282,1.807c-5.718,0 -11.889,-0.601 -18.504,-1.807c-6.624,-1.198 -12.49,-3.002 -17.603,-5.417l-0,-114.642l310.534,-0l0,114.642c-5.12,2.415 -10.909,4.219 -17.376,5.417c-6.475,1.206 -12.568,1.807 -18.283,1.807c-5.718,0 -11.888,-0.601 -18.504,-1.807c-6.62,-1.198 -12.49,-3.002 -17.603,-5.417l-0,-47.392l-38.368,0l0,196.342l28.887,-0c1.811,5.121 3.162,10.538 4.067,16.249c0.902,5.721 1.351,11.135 1.351,16.248c-0,5.121 -0.449,10.605 -1.351,16.475c-0.905,5.867 -2.256,11.362 -4.067,16.475l-148.041,0c-1.807,-5.113 -3.165,-10.608 -4.063,-16.475c-0.901,-5.87 -1.354,-11.354 -1.354,-16.475c-0,-5.113 0.453,-10.527 1.354,-16.248c0.898,-5.711 2.256,-11.128 4.063,-16.249l28.884,-0Zm-1215.85,-0l0,-198.149l-27.532,0c-1.807,-5.109 -3.161,-10.527 -4.063,-16.245c-0.902,-5.714 -1.354,-11.131 -1.354,-16.252c-0,-5.109 0.452,-10.608 1.354,-16.475c0.902,-5.866 2.256,-11.351 4.063,-16.471l165.195,-0c24.976,-0 47.165,4.215 66.579,12.634c19.406,8.431 35.803,19.937 49.198,34.531c13.384,14.597 23.537,31.67 30.461,51.228c6.923,19.566 10.382,40.475 10.382,62.742c-0,10.832 -0.976,22.42 -2.932,34.754c-1.959,12.341 -5.269,24.753 -9.925,37.235c-4.672,12.49 -10.765,24.527 -18.282,36.108c-7.529,11.584 -16.928,21.822 -28.212,30.694c-11.284,8.876 -24.601,15.952 -39.944,21.213c-15.347,5.269 -33.106,7.9 -53.262,7.9l-169.258,0c-1.807,-5.113 -3.161,-10.608 -4.063,-16.475c-0.902,-5.87 -1.354,-11.354 -1.354,-16.475c-0,-5.113 0.452,-10.527 1.354,-16.248c0.902,-5.711 2.256,-11.128 4.063,-16.249l27.532,-0Zm741.007,-0l-0,-198.145l-27.533,0c-1.807,-5.113 -3.157,-10.531 -4.063,-16.249c-0.905,-5.714 -1.354,-11.131 -1.354,-16.252c-0,-5.109 0.449,-10.608 1.354,-16.475c0.906,-5.866 2.256,-11.351 4.063,-16.471l114.193,-0l98.846,180.538l0,-115.091l-27.532,0c-1.803,-5.113 -3.158,-10.531 -4.063,-16.249c-0.902,-5.714 -1.355,-11.131 -1.355,-16.252c0,-5.109 0.453,-10.608 1.355,-16.475c0.905,-5.866 2.26,-11.351 4.063,-16.471l139.469,-0c1.804,5.12 3.162,10.605 4.064,16.471c0.901,5.867 1.354,11.366 1.354,16.475c-0,5.121 -0.453,10.538 -1.354,16.252c-0.902,5.718 -2.26,11.136 -4.064,16.249l-27.985,0l0,263.592l-82.145,0l-103.361,-187.766l-0,122.319l27.985,-0c1.803,5.121 3.161,10.538 4.063,16.249c0.902,5.721 1.351,11.135 1.351,16.248c-0,5.121 -0.449,10.605 -1.351,16.475c-0.902,5.867 -2.26,11.362 -4.063,16.475l-139.47,0c-1.807,-5.113 -3.157,-10.608 -4.063,-16.475c-0.905,-5.87 -1.354,-11.354 -1.354,-16.475c-0,-5.113 0.449,-10.527 1.354,-16.248c0.906,-5.711 2.256,-11.128 4.063,-16.249l27.533,-0Zm-967.812,-0l0,-198.145l-27.536,0c-1.803,-5.113 -3.154,-10.531 -4.063,-16.249c-0.902,-5.714 -1.351,-11.131 -1.351,-16.252c0,-5.109 0.449,-10.608 1.351,-16.475c0.909,-5.866 2.26,-11.351 4.063,-16.471l146.241,-0c1.811,5.12 3.162,10.605 4.063,16.471c0.906,5.867 1.351,11.366 1.351,16.475c-0,5.121 -0.445,10.538 -1.351,16.252c-0.901,5.718 -2.252,11.136 -4.063,16.249l-27.532,0l-0,198.145l27.532,-0c1.811,5.121 3.162,10.538 4.063,16.249c0.906,5.721 1.351,11.135 1.351,16.248c-0,5.121 -0.445,10.605 -1.351,16.475c-0.901,5.867 -2.252,11.362 -4.063,16.475l-146.241,0c-1.803,-5.113 -3.154,-10.608 -4.063,-16.475c-0.902,-5.87 -1.351,-11.354 -1.351,-16.475c0,-5.113 0.449,-10.527 1.351,-16.248c0.909,-5.711 2.26,-11.128 4.063,-16.249l27.536,-0Zm1740.73,-0l0,-198.145l-27.532,0c-1.804,-5.113 -3.158,-10.531 -4.06,-16.249c-0.905,-5.714 -1.354,-11.131 -1.354,-16.252c0,-5.109 0.449,-10.608 1.354,-16.475c0.902,-5.866 2.256,-11.351 4.06,-16.471l270.816,-0l0,84.853c-5.417,2.709 -11.666,4.739 -18.731,6.093c-7.076,1.354 -13.617,2.034 -19.632,2.034c-6.023,-0 -12.642,-0.68 -19.863,-2.034c-7.221,-1.354 -13.54,-3.384 -18.954,-6.093l0,-16.248l-74.927,-0l-0,58.679l115.547,-0c1.803,5.414 3.158,11.28 4.063,17.599c0.906,6.323 1.354,12.189 1.354,17.603c0,5.418 -0.448,11.284 -1.354,17.603c-0.905,6.319 -2.26,12.186 -4.063,17.603l-115.547,0l-0,62.739l77.632,-0l0,-24.824c5.418,-2.705 11.737,-4.739 18.961,-6.093c7.221,-1.354 13.833,-2.03 19.856,-2.03c6.018,0 12.564,0.676 19.636,2.03c7.065,1.354 13.314,3.388 18.731,6.093l0,93.432l-273.525,0c-1.804,-5.113 -3.158,-10.531 -4.06,-16.249c-0.905,-5.714 -1.354,-11.128 -1.354,-16.248c0,-5.113 0.449,-10.609 1.354,-16.475c0.902,-5.87 2.256,-11.354 4.06,-16.475l27.532,-0Zm-2441.86,-0l-0,-198.145l-27.533,0c-1.807,-5.113 -3.157,-10.531 -4.063,-16.249c-0.901,-5.714 -1.354,-11.131 -1.354,-16.252c0,-5.109 0.453,-10.608 1.354,-16.475c0.906,-5.866 2.256,-11.351 4.063,-16.471l270.813,-0l0,84.853c-5.413,2.709 -11.662,4.739 -18.727,6.093c-7.076,1.354 -13.621,2.034 -19.636,2.034c-6.023,-0 -12.639,-0.68 -19.859,-2.034c-7.221,-1.354 -13.54,-3.384 -18.958,-6.093l0,-16.248l-74.927,-0l-0,58.679l115.547,-0c1.807,5.414 3.161,11.28 4.063,17.599c0.902,6.323 1.354,12.189 1.354,17.603c0,5.418 -0.452,11.284 -1.354,17.603c-0.902,6.319 -2.256,12.186 -4.063,17.603l-115.547,0l-0,62.739l77.636,-0l0,-24.824c5.417,-2.705 11.733,-4.739 18.957,-6.093c7.221,-1.354 13.837,-2.03 19.859,-2.03c6.015,0 12.561,0.676 19.633,2.03c7.069,1.354 13.314,3.388 18.731,6.093l0,93.432l-273.522,0c-1.807,-5.113 -3.157,-10.531 -4.063,-16.249c-0.901,-5.714 -1.354,-11.128 -1.354,-16.248c0,-5.113 0.453,-10.609 1.354,-16.475c0.906,-5.87 2.256,-11.354 4.063,-16.475l27.533,-0Zm1316.48,-0l-0,-198.145l-27.533,0c-1.803,-5.113 -3.157,-10.531 -4.063,-16.249c-0.901,-5.714 -1.35,-11.131 -1.35,-16.252c-0,-5.109 0.449,-10.608 1.35,-16.475c0.906,-5.866 2.26,-11.351 4.063,-16.471l270.817,-0l-0,84.853c-5.417,2.709 -11.666,4.739 -18.731,6.093c-7.076,1.354 -13.618,2.034 -19.633,2.034c-6.022,-0 -12.642,-0.68 -19.862,-2.034c-7.221,-1.354 -13.54,-3.384 -18.954,-6.093l-0,-16.248l-74.928,-0l0,58.679l115.548,-0c1.803,5.414 3.157,11.28 4.063,17.599c0.901,6.323 1.354,12.189 1.354,17.603c0,5.418 -0.453,11.284 -1.354,17.603c-0.906,6.319 -2.26,12.186 -4.063,17.603l-115.548,0l0,62.739l77.633,-0l-0,-24.824c5.417,-2.705 11.737,-4.739 18.961,-6.093c7.221,-1.354 13.833,-2.03 19.855,-2.03c6.015,0 12.561,0.676 19.637,2.03c7.065,1.354 13.313,3.388 18.731,6.093l-0,93.432l-273.526,0c-1.803,-5.113 -3.157,-10.531 -4.063,-16.249c-0.901,-5.714 -1.35,-11.128 -1.35,-16.248c-0,-5.113 0.449,-10.609 1.35,-16.475c0.906,-5.87 2.26,-11.354 4.063,-16.475l27.533,-0Zm-2039.74,-0l0,-198.145l-27.536,0c-1.803,-5.113 -3.158,-10.531 -4.063,-16.249c-0.902,-5.714 -1.351,-11.131 -1.351,-16.252c0,-5.109 0.449,-10.605 1.351,-16.471c0.905,-5.867 2.26,-11.355 4.063,-16.475l165.648,-0c18.352,-0 34.452,2.56 48.296,7.673c13.837,5.117 25.503,12.186 34.98,21.214c9.481,9.024 16.623,19.71 21.44,32.044c4.809,12.342 7.224,25.729 7.224,40.171c0,12.037 -1.807,24.226 -5.417,36.56c-3.611,12.342 -9.781,23.473 -18.509,33.403c-8.731,9.929 -20.237,17.981 -34.526,24.148c-14.297,6.171 -32.123,9.251 -53.488,9.251l-48.743,-0l0,59.128l36.104,-0c1.807,5.121 3.162,10.538 4.063,16.249c0.902,5.721 1.355,11.135 1.355,16.248c-0,5.121 -0.453,10.605 -1.355,16.475c-0.901,5.87 -2.256,11.362 -4.063,16.475l-153.009,0c-1.803,-5.113 -3.158,-10.605 -4.063,-16.475c-0.902,-5.87 -1.351,-11.354 -1.351,-16.475c0,-5.113 0.449,-10.527 1.351,-16.248c0.905,-5.711 2.26,-11.128 4.063,-16.249l27.536,-0Zm341.633,-0l0,-198.149l-27.532,0c-1.807,-5.113 -3.162,-10.53 -4.064,-16.248c-0.905,-5.715 -1.354,-11.132 -1.354,-16.253c0,-5.109 0.449,-10.604 1.354,-16.471c0.902,-5.866 2.257,-11.354 4.064,-16.475l175.577,0c17.447,0 33.247,2.709 47.395,8.123c14.137,5.417 26.022,12.794 35.655,22.118c9.625,9.332 17.072,20.242 22.341,32.724c5.262,12.49 7.9,25.655 7.9,39.495c0,5.718 -0.753,12.486 -2.256,20.308c-1.51,7.83 -4.063,15.878 -7.673,24.149c-3.611,8.282 -8.576,16.33 -14.895,24.148c-6.319,7.826 -14.297,14.601 -23.922,20.312l38.364,72.219l32.048,-0c1.804,5.117 3.158,10.534 4.06,16.245c0.905,5.722 1.358,11.135 1.358,16.248c-0,5.121 -0.453,10.609 -1.358,16.479c-0.902,5.867 -2.256,11.358 -4.06,16.471l-99.299,0l-58.679,-124.122l-35.655,-0l0,58.679l30.238,-0c1.807,5.117 3.161,10.534 4.067,16.245c0.898,5.722 1.35,11.135 1.35,16.248c0,5.121 -0.452,10.609 -1.35,16.479c-0.906,5.867 -2.26,11.358 -4.067,16.471l-147.139,0c-1.807,-5.113 -3.162,-10.604 -4.064,-16.471c-0.905,-5.87 -1.354,-11.358 -1.354,-16.479c0,-5.113 0.449,-10.526 1.354,-16.248c0.902,-5.711 2.257,-11.128 4.064,-16.245l27.532,-0Zm1439.55,-4.969c10.531,0 18.802,-1.128 24.828,-3.384c6.019,-2.259 11.429,-5.64 16.245,-10.152c7.825,-7.521 14.219,-18.059 19.184,-31.595c4.968,-13.544 7.45,-30.394 7.45,-50.553c0,-17.752 -2.033,-32.872 -6.096,-45.366c-4.059,-12.478 -9.859,-22.486 -17.377,-30.015c-6.022,-6.014 -12.861,-10.378 -20.534,-13.087c-7.677,-2.705 -17.084,-4.063 -28.212,-4.063l-34.304,0l0,188.215l38.816,0Zm-1661.12,-119.606c11.736,-0 20.987,-2.857 27.755,-8.579c6.771,-5.711 10.159,-15.34 10.159,-28.887c0,-12.33 -3.317,-21.362 -9.929,-27.08c-6.624,-5.71 -15.503,-8.575 -26.631,-8.575l-32.045,-0l0,73.121l30.691,-0Zm352.467,-1.807c25.57,-0 38.364,-11.581 38.364,-34.754c0,-23.169 -12.794,-34.757 -38.364,-34.757l-41.525,0l0,69.511l41.525,-0Zm-1461.43,-591.109l-0,409.314c1774.04,-276.795 3581.64,-278.015 5355.98,-3.711l-0,-409.318c-1774.8,-267.985 -3581.47,-266.709 -5355.98,3.715Zm1128.25,-544.61c-22.282,-84.32 -78.431,-139.908 -150.498,-181.455c72.256,-55.343 105.244,-139.173 104.921,-233.919c-0.112,-144.816 -94.305,-260.182 -233.915,-307.017c-52.757,-18.92 -114.112,-28.382 -184.041,-28.382l-659.415,0c-2.423,27.354 -4.159,54.597 -5.298,81.792l-0,144.913c1.139,27.188 2.875,54.42 5.298,81.755l78.828,0l-0,636.951l-78.828,-0c-2.463,27.8 -4.17,55.484 -5.298,83.124l-0,140.858c0.746,18.389 1.699,36.79 3.028,55.235c354.601,-54.315 710.494,-97.863 1067.17,-130.605c69.518,-96.141 86.501,-231.466 58.049,-343.25Zm4018.84,147.907c-111.428,27.302 -280.564,21.629 -356.883,-54.835c-51.084,-46.405 -76.597,-127.084 -76.597,-241.985c-0,-204.257 61.502,-306.394 184.534,-306.398c91.162,0.264 125.043,62.594 125.34,151.455l-0,139.443c110.623,8.234 221.432,9.051 332.497,3.028l0,-595.392c-89.477,-5.428 -178.957,-4.378 -268.397,3.477l-0,32.408c-21.959,-13.862 -51.993,-28.593 -90.111,-44.189c-101.607,-39.529 -285.756,-27.996 -389.04,23.391c-234.456,106.613 -333.406,364.873 -331.855,618.654c-0,202.973 52.794,361.859 158.382,476.643c303.087,29.703 605.563,67.232 907.129,112.53c0.653,-0.285 1.313,-0.56 1.963,-0.853c4.189,-1.989 8.122,-3.859 11.929,-5.677l0,-402.702c-60.668,41.481 -132.902,74.445 -208.891,91.002Zm-1361.45,-590.216l0,636.947l-78.872,-0c-3.028,34.245 -4.961,68.315 -5.981,102.334c195.87,11.046 391.592,25.336 587.091,42.861c-0.256,-48.271 -2.453,-96.564 -6.75,-145.195l-78.872,-0l0,-636.947l78.872,0c9.132,-103.302 9.132,-205.132 0,-308.46l-574.36,-0c-9.147,103.328 -9.15,205.161 -0,308.46l78.872,0Zm-1355.26,78.171c-75.677,-275.618 -322.672,-426.802 -615.626,-420.175c-295.763,-6.794 -542.39,142.705 -619.069,420.171c-44.657,157.648 -44.891,320.55 0.003,477.863c22.568,81.025 59.704,151.132 108.331,209.618c351.451,-27.599 703.552,-44.753 1055.81,-51.443c30.412,-46.924 54.345,-99.74 70.553,-158.175c44.887,-157.313 44.66,-320.219 -0,-477.859Zm109.425,-78.171l-0,636.947l-79.444,-0c-2.256,25.317 -3.944,50.542 -5.098,75.718c185.321,-2.523 370.676,-2.141 555.986,1.117c-1.151,-25.547 -2.861,-51.143 -5.151,-76.835l-77.714,-0l0,-144.212l84.657,0l103.933,223.199c175.841,4.137 351.633,10.865 527.318,20.208c-1.054,-32.976 -2.935,-66.004 -5.87,-99.195l-110.227,-0l-113.651,-210.086c85.329,-58.901 137.032,-156.464 156.705,-254.004c39.933,-187.554 -61.614,-381.707 -241.948,-449.458c-53.38,-21.228 -113.388,-31.859 -179.956,-31.859l-688.371,-0c-9.147,103.328 -9.147,205.161 -0,308.46l78.831,0Zm-725.051,642.995c-170.753,-4.145 -213.811,-153.97 -215.254,-325.466c1.168,-170.527 44.972,-323.547 215.254,-327.184c165.084,4.612 211.236,159.377 211.811,327.188c-0.59,168.249 -46.727,320.85 -211.811,325.462Zm-1178.5,-10.055l-167.555,-0l-0,-188.279l167.555,0c34.545,0 60.456,9.228 77.729,27.636c17.273,18.435 25.911,40.323 25.911,65.637c-0.572,58.289 -40.983,96.545 -103.64,95.006Zm2292.13,-640.951l162.312,-0c27.625,-0 50.345,9.224 68.204,27.629c17.833,18.423 26.764,42.597 26.764,72.523c0.743,60.646 -38.267,100.639 -98.423,100.145l-158.857,0l0,-200.297Zm-2459.68,-0.004l141.08,0c30.182,0 51.655,8.709 64.445,26.126c12.761,17.422 19.158,35.436 19.158,53.989c-0.345,47.455 -32.13,81.522 -83.603,80.123l-141.08,-0l-0,-160.238Z"/></clipPath><g clip-path="url(#_clip1)"><path d="M4090.89,6016.67l-0,-5101.09l-2221.11,-915.58l0,5101.09l2221.11,915.58Z" style="fill-opacity:0.4;"/><path d="M6016.67,-0l-1925.78,915.58l-0,5101.09l1925.78,-915.58l-0,-5101.09Z" style="fill-opacity:0.5;"/><path d="M1869.78,5101.09l0,-5101.09l-1869.78,915.58l-0,5101.09l1869.78,-915.58Z" style="fill-opacity:0.5;"/></g></g><path d="M2366.98,3944.38c5.113,-2.404 10.902,-4.208 17.377,-5.414c6.467,-1.198 12.708,-1.807 18.731,-1.807c6.014,0 12.415,0.609 19.183,1.807c6.768,1.206 12.709,3.01 17.83,5.414l-0,15.8c-0,3.606 1.424,7.751 4.289,12.411c2.853,4.668 7.143,8.958 12.865,12.861c5.71,3.919 12.86,7.225 21.436,9.934c8.575,2.708 18.578,4.059 30.014,4.059c16.546,-0 28.283,-2.479 35.206,-7.443c6.921,-4.969 10.383,-11.663 10.383,-20.09c-0,-7.22 -2.787,-13.384 -8.349,-18.504c-5.573,-5.113 -14.972,-9.625 -28.212,-13.54l-64.093,-18.957c-11.135,-3.31 -21.591,-7.373 -31.369,-12.186c-9.781,-4.813 -18.356,-10.983 -25.729,-18.508c-7.377,-7.518 -13.165,-16.475 -17.377,-26.858c-4.218,-10.378 -6.319,-22.794 -6.319,-37.231c0,-17.752 3.459,-32.954 10.383,-45.589c6.92,-12.642 15.643,-23.02 26.178,-31.146c10.53,-8.123 22.263,-14.138 35.206,-18.052c12.935,-3.911 25.425,-5.867 37.465,-5.867c21.663,0 38.512,3.088 50.55,9.251c12.033,6.171 20.46,13.02 25.276,20.538l0,-18.056c5.117,-2.404 10.983,-4.211 17.607,-5.417c6.612,-1.195 12.783,-1.804 18.501,-1.804c5.714,0 11.736,0.609 18.055,1.804c6.319,1.206 12.03,3.013 17.151,5.417l-0,103.358c-5.121,2.416 -10.832,4.219 -17.151,5.418c-6.319,1.209 -12.489,1.807 -18.504,1.807c-6.023,-0 -12.568,-0.598 -19.637,-1.807c-7.072,-1.199 -13.165,-3.002 -18.278,-5.418l0,-4.961c0,-10.831 -4.442,-20.237 -13.317,-28.211c-8.876,-7.967 -23.243,-11.963 -43.102,-11.963c-8.123,-0 -14.973,1.132 -20.538,3.388c-5.57,2.256 -9.859,5.042 -12.865,8.348c-3.607,4.219 -5.414,9.028 -5.414,14.446c0,4.516 1.425,8.731 4.286,12.638c2.857,3.915 9.855,7.525 20.991,10.831l48.293,13.544c14.445,4.215 28.278,8.875 41.529,13.989c13.235,5.12 24.968,11.733 35.202,19.862c10.226,8.123 18.43,18.208 24.601,30.238c6.163,12.037 9.251,27.083 9.251,45.135c-0,18.357 -3.767,34.008 -11.284,46.943c-7.522,12.942 -17.08,23.547 -28.664,31.822c-11.585,8.278 -24.527,14.293 -38.813,18.052c-14.297,3.762 -28.212,5.644 -41.748,5.644c-9.636,-0 -19.035,-0.902 -28.211,-2.709c-9.188,-1.803 -17.603,-4.286 -25.277,-7.447c-7.673,-3.158 -14.297,-6.843 -19.863,-11.058c-5.569,-4.211 -9.703,-8.575 -12.411,-13.091l-0,22.115c-5.121,2.416 -10.987,4.219 -17.603,5.418c-6.62,1.202 -12.791,1.807 -18.505,1.807c-5.718,-0 -11.737,-0.605 -18.052,-1.807c-6.323,-1.199 -12.041,-3.002 -17.154,-5.418l-0,-113.74Zm603.462,52.809l0,-198.149l-27.532,0c-1.807,-5.109 -3.161,-10.527 -4.063,-16.245c-0.902,-5.714 -1.354,-11.131 -1.354,-16.252c-0,-5.109 0.452,-10.608 1.354,-16.475c0.902,-5.866 2.256,-11.351 4.063,-16.471l165.195,-0c24.976,-0 47.165,4.215 66.579,12.634c19.406,8.431 35.803,19.937 49.198,34.531c13.384,14.597 23.537,31.67 30.461,51.228c6.923,19.566 10.382,40.475 10.382,62.742c-0,10.832 -0.976,22.42 -2.932,34.754c-1.959,12.341 -5.269,24.753 -9.925,37.235c-4.672,12.49 -10.765,24.527 -18.282,36.108c-7.529,11.584 -16.928,21.822 -28.212,30.694c-11.284,8.876 -24.601,15.952 -39.944,21.213c-15.347,5.269 -33.106,7.9 -53.262,7.9l-169.258,0c-1.807,-5.113 -3.161,-10.608 -4.063,-16.475c-0.902,-5.87 -1.354,-11.354 -1.354,-16.475c-0,-5.113 0.452,-10.527 1.354,-16.248c0.902,-5.711 2.256,-11.128 4.063,-16.249l27.532,-0Zm741.007,-0l-0,-198.145l-27.533,0c-1.807,-5.113 -3.157,-10.531 -4.063,-16.249c-0.905,-5.714 -1.354,-11.131 -1.354,-16.252c-0,-5.109 0.449,-10.608 1.354,-16.475c0.906,-5.866 2.256,-11.351 4.063,-16.471l114.193,-0l98.846,180.538l0,-115.091l-27.532,0c-1.803,-5.113 -3.158,-10.531 -4.063,-16.249c-0.902,-5.714 -1.355,-11.131 -1.355,-16.252c0,-5.109 0.453,-10.608 1.355,-16.475c0.905,-5.866 2.26,-11.351 4.063,-16.471l139.469,-0c1.804,5.12 3.162,10.605 4.064,16.471c0.901,5.867 1.354,11.366 1.354,16.475c-0,5.121 -0.453,10.538 -1.354,16.252c-0.902,5.718 -2.26,11.136 -4.064,16.249l-27.985,0l0,263.592l-82.145,0l-103.361,-187.766l-0,122.319l27.985,-0c1.803,5.121 3.161,10.538 4.063,16.249c0.902,5.721 1.351,11.135 1.351,16.248c-0,5.121 -0.449,10.605 -1.351,16.475c-0.902,5.867 -2.26,11.362 -4.063,16.475l-139.47,0c-1.807,-5.113 -3.157,-10.608 -4.063,-16.475c-0.905,-5.87 -1.354,-11.354 -1.354,-16.475c-0,-5.113 0.449,-10.527 1.354,-16.248c0.906,-5.711 2.256,-11.128 4.063,-16.249l27.533,-0Zm-967.812,-0l0,-198.145l-27.536,0c-1.803,-5.113 -3.154,-10.531 -4.063,-16.249c-0.902,-5.714 -1.351,-11.131 -1.351,-16.252c0,-5.109 0.449,-10.608 1.351,-16.475c0.909,-5.866 2.26,-11.351 4.063,-16.471l146.241,-0c1.811,5.12 3.162,10.605 4.063,16.471c0.906,5.867 1.351,11.366 1.351,16.475c-0,5.121 -0.445,10.538 -1.351,16.252c-0.901,5.718 -2.252,11.136 -4.063,16.249l-27.532,0l-0,198.145l27.532,-0c1.811,5.121 3.162,10.538 4.063,16.249c0.906,5.721 1.351,11.135 1.351,16.248c-0,5.121 -0.445,10.605 -1.351,16.475c-0.901,5.867 -2.252,11.362 -4.063,16.475l-146.241,0c-1.803,-5.113 -3.154,-10.608 -4.063,-16.475c-0.902,-5.87 -1.351,-11.354 -1.351,-16.475c0,-5.113 0.449,-10.527 1.351,-16.248c0.909,-5.711 2.26,-11.128 4.063,-16.249l27.536,-0Zm1740.73,-0l0,-198.145l-27.532,0c-1.804,-5.113 -3.158,-10.531 -4.06,-16.249c-0.905,-5.714 -1.354,-11.131 -1.354,-16.252c0,-5.109 0.449,-10.608 1.354,-16.475c0.902,-5.866 2.256,-11.351 4.06,-16.471l270.816,-0l0,84.853c-5.417,2.709 -11.666,4.739 -18.731,6.093c-7.076,1.354 -13.617,2.034 -19.632,2.034c-6.023,-0 -12.642,-0.68 -19.863,-2.034c-7.221,-1.354 -13.54,-3.384 -18.954,-6.093l0,-16.248l-74.927,-0l-0,58.679l115.547,-0c1.803,5.414 3.158,11.28 4.063,17.599c0.906,6.323 1.354,12.189 1.354,17.603c0,5.418 -0.448,11.284 -1.354,17.603c-0.905,6.319 -2.26,12.186 -4.063,17.603l-115.547,0l-0,62.739l77.632,-0l0,-24.824c5.418,-2.705 11.737,-4.739 18.961,-6.093c7.221,-1.354 13.833,-2.03 19.856,-2.03c6.018,0 12.564,0.676 19.636,2.03c7.065,1.354 13.314,3.388 18.731,6.093l0,93.432l-273.525,0c-1.804,-5.113 -3.158,-10.531 -4.06,-16.249c-0.905,-5.714 -1.354,-11.128 -1.354,-16.248c0,-5.113 0.449,-10.609 1.354,-16.475c0.902,-5.87 2.256,-11.354 4.06,-16.475l27.532,-0Zm-2441.86,-0l-0,-198.145l-27.533,0c-1.807,-5.113 -3.157,-10.531 -4.063,-16.249c-0.901,-5.714 -1.354,-11.131 -1.354,-16.252c0,-5.109 0.453,-10.608 1.354,-16.475c0.906,-5.866 2.256,-11.351 4.063,-16.471l270.813,-0l0,84.853c-5.413,2.709 -11.662,4.739 -18.727,6.093c-7.076,1.354 -13.621,2.034 -19.636,2.034c-6.023,-0 -12.639,-0.68 -19.859,-2.034c-7.221,-1.354 -13.54,-3.384 -18.958,-6.093l0,-16.248l-74.927,-0l-0,58.679l115.547,-0c1.807,5.414 3.161,11.28 4.063,17.599c0.902,6.323 1.354,12.189 1.354,17.603c0,5.418 -0.452,11.284 -1.354,17.603c-0.902,6.319 -2.256,12.186 -4.063,17.603l-115.547,0l-0,62.739l77.636,-0l0,-24.824c5.417,-2.705 11.733,-4.739 18.957,-6.093c7.221,-1.354 13.837,-2.03 19.859,-2.03c6.015,0 12.561,0.676 19.633,2.03c7.069,1.354 13.314,3.388 18.731,6.093l0,93.432l-273.522,0c-1.807,-5.113 -3.157,-10.531 -4.063,-16.249c-0.901,-5.714 -1.354,-11.128 -1.354,-16.248c0,-5.113 0.453,-10.609 1.354,-16.475c0.906,-5.87 2.256,-11.354 4.063,-16.475l27.533,-0Zm1316.48,-0l-0,-198.145l-27.533,0c-1.803,-5.113 -3.157,-10.531 -4.063,-16.249c-0.901,-5.714 -1.35,-11.131 -1.35,-16.252c-0,-5.109 0.449,-10.608 1.35,-16.475c0.906,-5.866 2.26,-11.351 4.063,-16.471l270.817,-0l-0,84.853c-5.417,2.709 -11.666,4.739 -18.731,6.093c-7.076,1.354 -13.618,2.034 -19.633,2.034c-6.022,-0 -12.642,-0.68 -19.862,-2.034c-7.221,-1.354 -13.54,-3.384 -18.954,-6.093l-0,-16.248l-74.928,-0l0,58.679l115.548,-0c1.803,5.414 3.157,11.28 4.063,17.599c0.901,6.323 1.354,12.189 1.354,17.603c0,5.418 -0.453,11.284 -1.354,17.603c-0.906,6.319 -2.26,12.186 -4.063,17.603l-115.548,0l0,62.739l77.633,-0l-0,-24.824c5.417,-2.705 11.737,-4.739 18.961,-6.093c7.221,-1.354 13.833,-2.03 19.855,-2.03c6.015,0 12.561,0.676 19.637,2.03c7.065,1.354 13.313,3.388 18.731,6.093l-0,93.432l-273.526,0c-1.803,-5.113 -3.157,-10.531 -4.063,-16.249c-0.901,-5.714 -1.35,-11.128 -1.35,-16.248c-0,-5.113 0.449,-10.609 1.35,-16.475c0.906,-5.87 2.26,-11.354 4.063,-16.475l27.533,-0Zm-2039.74,-0l0,-198.145l-27.536,0c-1.803,-5.113 -3.158,-10.531 -4.063,-16.249c-0.902,-5.714 -1.351,-11.131 -1.351,-16.252c0,-5.109 0.449,-10.605 1.351,-16.471c0.905,-5.867 2.26,-11.355 4.063,-16.475l165.648,-0c18.352,-0 34.452,2.56 48.296,7.673c13.837,5.117 25.503,12.186 34.98,21.214c9.481,9.024 16.623,19.71 21.44,32.044c4.809,12.342 7.224,25.729 7.224,40.171c0,12.037 -1.807,24.226 -5.417,36.56c-3.611,12.342 -9.781,23.473 -18.509,33.403c-8.731,9.929 -20.237,17.981 -34.526,24.148c-14.297,6.171 -32.123,9.251 -53.488,9.251l-48.743,-0l0,59.128l36.104,-0c1.807,5.121 3.162,10.538 4.063,16.249c0.902,5.721 1.355,11.135 1.355,16.248c-0,5.121 -0.453,10.605 -1.355,16.475c-0.901,5.87 -2.256,11.362 -4.063,16.475l-153.009,0c-1.803,-5.113 -3.158,-10.605 -4.063,-16.475c-0.902,-5.87 -1.351,-11.354 -1.351,-16.475c0,-5.113 0.449,-10.527 1.351,-16.248c0.905,-5.711 2.26,-11.128 4.063,-16.249l27.536,-0Zm2867.05,-0l-0,-196.342l-38.364,0l-0,47.392c-5.121,2.415 -10.909,4.219 -17.377,5.417c-6.475,1.206 -12.568,1.807 -18.282,1.807c-5.718,0 -11.889,-0.601 -18.504,-1.807c-6.624,-1.198 -12.49,-3.002 -17.603,-5.417l-0,-114.642l310.534,-0l0,114.642c-5.12,2.415 -10.909,4.219 -17.376,5.417c-6.475,1.206 -12.568,1.807 -18.283,1.807c-5.718,0 -11.888,-0.601 -18.504,-1.807c-6.62,-1.198 -12.49,-3.002 -17.603,-5.417l-0,-47.392l-38.368,0l0,196.342l28.887,-0c1.811,5.121 3.162,10.538 4.067,16.249c0.902,5.721 1.351,11.135 1.351,16.248c-0,5.121 -0.449,10.605 -1.351,16.475c-0.905,5.867 -2.256,11.362 -4.067,16.475l-148.041,0c-1.807,-5.113 -3.165,-10.608 -4.063,-16.475c-0.901,-5.87 -1.354,-11.354 -1.354,-16.475c-0,-5.113 0.453,-10.527 1.354,-16.248c0.898,-5.711 2.256,-11.128 4.063,-16.249l28.884,-0Zm-2525.41,-0l0,-198.149l-27.532,0c-1.807,-5.113 -3.162,-10.53 -4.064,-16.248c-0.905,-5.715 -1.354,-11.132 -1.354,-16.253c0,-5.109 0.449,-10.604 1.354,-16.471c0.902,-5.866 2.257,-11.354 4.064,-16.475l175.577,0c17.447,0 33.247,2.709 47.395,8.123c14.137,5.417 26.022,12.794 35.655,22.118c9.625,9.332 17.072,20.242 22.341,32.724c5.262,12.49 7.9,25.655 7.9,39.495c0,5.718 -0.753,12.486 -2.256,20.308c-1.51,7.83 -4.063,15.878 -7.673,24.149c-3.611,8.282 -8.576,16.33 -14.895,24.148c-6.319,7.826 -14.297,14.601 -23.922,20.312l38.364,72.219l32.048,-0c1.804,5.117 3.158,10.534 4.06,16.245c0.905,5.722 1.358,11.135 1.358,16.248c-0,5.121 -0.453,10.609 -1.358,16.479c-0.902,5.867 -2.256,11.358 -4.06,16.471l-99.299,0l-58.679,-124.122l-35.655,-0l0,58.679l30.238,-0c1.807,5.117 3.161,10.534 4.067,16.245c0.898,5.722 1.35,11.135 1.35,16.248c0,5.121 -0.452,10.609 -1.35,16.479c-0.906,5.867 -2.26,11.358 -4.067,16.471l-147.139,0c-1.807,-5.113 -3.162,-10.604 -4.064,-16.471c-0.905,-5.87 -1.354,-11.358 -1.354,-16.479c0,-5.113 0.449,-10.526 1.354,-16.248c0.902,-5.711 2.257,-11.128 4.064,-16.245l27.532,-0Zm1439.55,-4.969c10.531,0 18.802,-1.128 24.828,-3.384c6.019,-2.259 11.429,-5.64 16.245,-10.152c7.825,-7.521 14.219,-18.059 19.184,-31.595c4.968,-13.544 7.45,-30.394 7.45,-50.553c0,-17.752 -2.033,-32.872 -6.096,-45.366c-4.059,-12.478 -9.859,-22.486 -17.377,-30.015c-6.022,-6.014 -12.861,-10.378 -20.534,-13.087c-7.677,-2.705 -17.084,-4.063 -28.212,-4.063l-34.304,0l0,188.215l38.816,0Zm-1661.12,-119.606c11.736,-0 20.987,-2.857 27.755,-8.579c6.771,-5.711 10.159,-15.34 10.159,-28.887c0,-12.33 -3.317,-21.362 -9.929,-27.08c-6.624,-5.71 -15.503,-8.575 -26.631,-8.575l-32.045,-0l0,73.121l30.691,-0Zm352.467,-1.807c25.57,-0 38.364,-11.581 38.364,-34.754c0,-23.169 -12.794,-34.757 -38.364,-34.757l-41.525,0l0,69.511l41.525,-0Zm-1461.43,-591.109l-0,409.314c1774.04,-276.795 3581.64,-278.015 5355.98,-3.711l-0,-409.318c-1774.8,-267.985 -3581.47,-266.709 -5355.98,3.715Zm1128.25,-544.61c-22.282,-84.32 -78.431,-139.908 -150.498,-181.455c72.256,-55.343 105.244,-139.173 104.921,-233.919c-0.112,-144.816 -94.305,-260.182 -233.915,-307.017c-52.757,-18.92 -114.112,-28.382 -184.041,-28.382l-659.415,0c-2.423,27.354 -4.159,54.597 -5.298,81.792l-0,144.913c1.139,27.188 2.875,54.42 5.298,81.755l78.828,0l-0,636.951l-78.828,-0c-2.463,27.8 -4.17,55.484 -5.298,83.124l-0,140.858c0.746,18.389 1.699,36.79 3.028,55.235c354.601,-54.315 710.494,-97.863 1067.17,-130.605c69.518,-96.141 86.501,-231.466 58.049,-343.25Zm4018.84,147.907c-111.428,27.302 -280.564,21.629 -356.883,-54.835c-51.084,-46.405 -76.597,-127.084 -76.597,-241.985c-0,-204.257 61.502,-306.394 184.534,-306.398c91.162,0.264 125.043,62.594 125.34,151.455l-0,139.443c110.623,8.234 221.432,9.051 332.497,3.028l0,-595.392c-89.477,-5.428 -178.957,-4.378 -268.397,3.477l-0,32.408c-21.959,-13.862 -51.993,-28.593 -90.111,-44.189c-101.607,-39.529 -285.756,-27.996 -389.04,23.391c-234.456,106.613 -333.406,364.873 -331.855,618.654c-0,202.973 52.794,361.859 158.382,476.643c303.087,29.703 605.563,67.232 907.129,112.53c0.653,-0.285 1.313,-0.56 1.963,-0.853c4.189,-1.989 8.122,-3.859 11.929,-5.677l0,-402.702c-60.668,41.481 -132.902,74.445 -208.891,91.002Zm-1361.45,-590.216l0,636.947l-78.872,-0c-3.028,34.245 -4.961,68.315 -5.981,102.334c195.87,11.046 391.592,25.336 587.091,42.861c-0.256,-48.271 -2.453,-96.564 -6.75,-145.195l-78.872,-0l0,-636.947l78.872,0c9.132,-103.302 9.132,-205.132 0,-308.46l-574.36,-0c-9.147,103.328 -9.15,205.161 -0,308.46l78.872,0Zm-1355.26,78.171c-75.677,-275.618 -322.672,-426.802 -615.626,-420.175c-295.763,-6.794 -542.39,142.705 -619.069,420.171c-44.657,157.648 -44.891,320.55 0.003,477.863c22.568,81.025 59.704,151.132 108.331,209.618c351.451,-27.599 703.552,-44.753 1055.81,-51.443c30.412,-46.924 54.345,-99.74 70.553,-158.175c44.887,-157.313 44.66,-320.219 -0,-477.859Zm109.425,-78.171l-0,636.947l-79.444,-0c-2.256,25.317 -3.944,50.542 -5.098,75.718c185.321,-2.523 370.676,-2.141 555.986,1.117c-1.151,-25.547 -2.861,-51.143 -5.151,-76.835l-77.714,-0l0,-144.212l84.657,0l103.933,223.199c175.841,4.137 351.633,10.865 527.318,20.208c-1.054,-32.976 -2.935,-66.004 -5.87,-99.195l-110.227,-0l-113.651,-210.086c85.329,-58.901 137.032,-156.464 156.705,-254.004c39.933,-187.554 -61.614,-381.707 -241.948,-449.458c-53.38,-21.228 -113.388,-31.859 -179.956,-31.859l-688.371,-0c-9.147,103.328 -9.147,205.161 -0,308.46l78.831,0Zm-725.051,642.995c-170.753,-4.145 -213.811,-153.97 -215.254,-325.466c1.168,-170.527 44.972,-323.547 215.254,-327.184c165.084,4.612 211.236,159.377 211.811,327.188c-0.59,168.249 -46.727,320.85 -211.811,325.462Zm-1178.5,-10.055l-167.555,-0l-0,-188.279l167.555,0c34.545,0 60.456,9.228 77.729,27.636c17.273,18.435 25.911,40.323 25.911,65.637c-0.572,58.289 -40.983,96.545 -103.64,95.006Zm2292.13,-640.951l162.312,-0c27.625,-0 50.345,9.224 68.204,27.629c17.833,18.423 26.764,42.597 26.764,72.523c0.743,60.646 -38.267,100.639 -98.423,100.145l-158.857,0l0,-200.297Zm-2459.68,-0.004l141.08,0c30.182,0 51.655,8.709 64.445,26.126c12.761,17.422 19.158,35.436 19.158,53.989c-0.345,47.455 -32.13,81.522 -83.603,80.123l-141.08,-0l-0,-160.238Z" style="fill:#fff;fill-rule:nonzero;"/></svg>